<svg width="150" height="49" viewBox="0 0 150 49" fill="none" xmlns="http://www.w3.org/2000/svg">
<path d="M0 10.0882V40.3529C7.08406 40.3529 8.85508 46.1176 8.85508 49H142.314C142.314 41.5059 147.374 40.1127 149.904 40.3529V10.0882C143.326 10.0882 142.103 3.36275 142.314 0H8.85508C8.85508 10.0882 2.95169 9.36765 0 10.0882Z" fill="#775339"/>
<path d="M6.63306 13.2907V36.83C13.081 36.83 14.693 41.3136 14.693 43.5554H136.168C136.168 37.7267 140.773 36.6431 143.076 36.83V13.2907C137.089 13.2907 135.976 8.0598 136.168 5.44434H14.693C14.693 13.2907 9.3197 12.7303 6.63306 13.2907Z" fill="#775339" stroke="#F7F2E6" stroke-width="1.5"/>
</svg>
