<svg width="182" height="49" viewBox="0 0 182 49" fill="none" xmlns="http://www.w3.org/2000/svg">
<path d="M0 10.0882V40.3529C8.60084 40.3529 10.7511 46.1176 10.7511 49H172.785C172.785 41.5059 178.928 40.1127 182 40.3529V10.0882C174.014 10.0882 172.529 3.36275 172.785 0H10.7511C10.7511 10.0882 3.58368 9.36765 0 10.0882Z" fill="#775339"/>
<path d="M7.45032 13.0294V37.1176C15.2967 37.1176 17.2583 41.7059 17.2583 44H165.079C165.079 38.0353 170.683 36.9265 173.485 37.1176V13.0294C166.199 13.0294 164.845 7.67647 165.079 5H17.2583C17.2583 13.0294 10.7196 12.4559 7.45032 13.0294Z" fill="#775339" stroke="#F7F2E6" stroke-width="1.5"/>
</svg>
