<svg width="231" height="49" viewBox="0 0 231 49" fill="none" xmlns="http://www.w3.org/2000/svg">
<path d="M0 10.0882V40.3529C10.9165 40.3529 13.6456 46.1176 13.6456 49H219.304C219.304 41.5059 227.101 40.1127 231 40.3529V10.0882C220.863 10.0882 218.979 3.36275 219.304 0H13.6456C13.6456 10.0882 4.54852 9.36765 0 10.0882Z" fill="#775339"/>
<path d="M7 13.0294V37.1176C17.3494 37.1176 19.9367 41.7059 19.9367 44H214.911C214.911 38.0353 222.304 36.9265 226 37.1176V13.0294C216.39 13.0294 214.603 7.67647 214.911 5H19.9367C19.9367 13.0294 11.3122 12.4559 7 13.0294Z" fill="#775339" stroke="#F7F2E6" stroke-width="1.5"/>
</svg>
