<svg width="119" height="78" viewBox="0 0 119 78" fill="none" xmlns="http://www.w3.org/2000/svg">
<path d="M118 52.3745H79.7424C73.9127 52.0102 63.8928 53.9357 63.8928 64.9449C63.8928 76.9687 74.8236 76.9687 80.8355 76.9687M80.8355 76.9687C76.4632 76.4222 73.1343 71.5033 73.7305 68.2241C74.6248 63.3053 78.8315 61.4835 80.8355 61.1191H118M80.8355 76.9687H118" stroke="#E3D7C1" stroke-width="2" stroke-linecap="round"/>
<path d="M50.7759 37.4619C50.2082 34.3859 47.0292 28.7766 38.8543 30.948C35.4482 29.5004 27.1672 29.42 25.7974 36.3763C25.1421 39.704 28.0681 45.0616 34.8805 42.3474C36.5836 41.4427 38.2056 38.7111 36.0159 36.3763" stroke="#E3D7C1" stroke-width="2" stroke-linecap="round"/>
<path d="M78.1028 25.0476C75.9166 25.9585 73.1839 29.9665 78.1028 32.1526C80.4711 32.8813 85.7543 33.2457 87.9404 28.8734C96.6851 33.2457 110.895 26.6872 105.43 15.7565C103.972 13.206 98.7619 8.76083 89.5801 11.3842C87.2117 7.01191 80.1959 1.00001 69.9047 1C59.5205 0.999988 55.5126 8.10498 54.6017 10.2911C50.5938 9.56241 42.1407 10.1818 40.3917 18.4892M40.3917 18.4892C34.9264 16.1209 22.7932 14.1169 17.9837 25.0476C11.0609 24.8654 -1.91024 28.3268 1.5876 43.6299C3.77375 47.2735 10.4415 53.4675 19.6233 49.0953C23.0847 54.7428 33.1774 63.0866 45.8571 51.2814C51.5047 53.8319 63.8928 56.2002 68.2651 45.2695C68.658 44.2086 68.9425 42.8884 68.9803 41.4437M40.3917 18.4892C49.5736 17.6147 52.5977 23.9545 52.9621 27.2338C54.7906 27.5225 56.4241 27.9065 57.8809 28.368M57.8809 28.368C57.1522 24.3463 58.7554 17.2868 68.8117 19.0357C73.184 14.6634 84.7706 13.1331 87.3939 24.5011M57.8809 28.368C66.8059 31.1951 69.0984 36.9274 68.9803 41.4437M68.9803 41.4437C73.4786 44.5408 84.5519 48.5487 92.8593 39.8041H118" stroke="#E3D7C1" stroke-width="2" stroke-linecap="round"/>
</svg>
