<svg width="129" height="72" viewBox="0 0 129 72" fill="none" xmlns="http://www.w3.org/2000/svg">
<path d="M61.1796 26.2158C62.4506 29.052 61.6562 33.779 54.507 34.2518C44.0338 34.9443 43.0682 21.0162 50.6941 18.18C56.7948 15.911 60.2264 17.2346 61.1796 18.18C67.3757 14.871 77.3846 15.8164 79.7677 25.2705C83.5806 26.2159 86.9169 37.1825 77.3846 41.3423C75.3193 41.9725 70.426 42.8549 67.3756 41.3423C66.1047 43.3906 62.1329 46.7311 56.4135 43.7058M56.4135 43.7058C51.4884 46.2268 40.8758 48.5273 37.8254 37.5607C33.5359 36.1426 25.8147 30.6592 29.2463 20.0708C32.6779 9.48226 42.4327 9.04108 46.8811 10.144C49.5819 4.94433 58.2246 -3.56428 71.1886 3.99893C75.7959 1.95055 86.4403 -0.917166 92.1597 3.99893C97.8791 8.91502 99.9445 14.2408 100.262 16.2891C106.776 14.7135 121.043 14.3038 126 25.2705C132.196 38.9788 117.897 46.0693 106.935 43.7058M56.4135 43.7058C56.4135 47.4874 53.0771 50.5073 48.7876 50.7963C35.9189 51.663 33.4405 43.6112 21.6204 39.4515C16.5 37.6495 5.8 37.0612 1 39.5C1 41.5 1.05325 42.5 1.5 44M106.935 43.7058C108.682 39.4515 106.935 27.4449 95.9726 25.2705C94.3839 24.9553 90.2532 24.325 85.0105 25.2705M106.935 43.7058C104.856 47.344 99.5399 53.1103 92.1597 53.5047M92.1597 53.5047C89.951 53.6227 87.5574 53.2596 85.0105 52.2144C83.2629 53.79 77.6706 56.2796 69.2821 53.6325C64.6748 58.9897 47.8343 65.45 34.9657 53.6325C30.7164 49.7255 18.3872 42.5646 1.5 44M92.1597 53.5047C89.1094 68.907 75.637 68.8312 69.2821 66.8681C58.7965 75.3767 37.3802 68.3286 26.3866 56.4687C19 48.5 7.42439 47.9791 3 48C2.5 46.5 1.94675 45.5 1.5 44" stroke="#D5C6AF" stroke-opacity="0.5" stroke-width="2" stroke-linecap="round"/>
</svg>
