<svg width="22" height="22" viewBox="0 0 22 22" fill="none" xmlns="http://www.w3.org/2000/svg">
<path d="M9.625 18.5625C9.625 18.9422 9.3172 19.25 8.9375 19.25C8.5578 19.25 8.25 18.9422 8.25 18.5625C8.25 18.1828 8.5578 17.875 8.9375 17.875C9.3172 17.875 9.625 18.1828 9.625 18.5625Z" stroke="white" stroke-width="1.5" stroke-linecap="round" stroke-linejoin="round"/>
<path d="M17.4165 18.5625C17.4165 18.9422 17.1087 19.25 16.729 19.25C16.3493 19.25 16.0415 18.9422 16.0415 18.5625C16.0415 18.1828 16.3493 17.875 16.729 17.875C17.1087 17.875 17.4165 18.1828 17.4165 18.5625Z" stroke="white" stroke-width="1.5" stroke-linecap="round" stroke-linejoin="round"/>
<path d="M1.8335 2.75H2.02292C3.23713 2.75 3.84424 2.75 4.2402 3.11869C4.63617 3.48738 4.67942 4.09294 4.76593 5.30407L4.99632 8.52954C5.12653 10.3524 5.19163 11.2639 5.46786 12.0048C6.07336 13.6288 7.40893 14.8723 9.07194 15.3606C9.83062 15.5833 10.7496 15.5833 12.5876 15.5833C14.5176 15.5833 15.4827 15.5833 16.2634 15.3465C18.0212 14.8133 19.3968 13.4377 19.93 11.6799C20.1668 10.8992 20.1668 9.93973 20.1668 8.02083C20.1668 7.3812 20.1668 7.06138 20.0879 6.80114C19.9101 6.21521 19.4516 5.75668 18.8657 5.57894C18.6054 5.5 18.2856 5.5 17.646 5.5H5.04183" stroke="white" stroke-width="1.5" stroke-linecap="round" stroke-linejoin="round"/>
<path d="M14.6668 9.1665V11.9165M10.0835 9.1665V11.9165" stroke="white" stroke-width="1.5" stroke-linecap="round" stroke-linejoin="round"/>
</svg>
