<svg width="14" height="14" viewBox="0 0 14 14" fill="none" xmlns="http://www.w3.org/2000/svg">
<path d="M2.91669 11.6666H11.0834H2.91669Z" fill="white"/>
<path d="M2.91669 11.6666H11.0834" stroke="#950B0B" stroke-width="1.2" stroke-linecap="round" stroke-linejoin="round"/>
<path d="M4.66667 7C4.02234 7 3.50001 6.47768 3.50001 5.83333C3.50001 5.71021 3.51908 5.59154 3.55443 5.48012L2.06483 4.21354C1.85027 4.0311 1.5269 4.04157 1.32531 4.23747C1.18246 4.37628 1.131 4.58083 1.19184 4.76803L2.64999 9.1206C2.80931 9.59615 3.25471 9.91667 3.75623 9.91667H10.2438C10.7453 9.91667 11.1907 9.59615 11.35 9.1206L12.8082 4.76803C12.8691 4.58083 12.8176 4.37628 12.6747 4.23747C12.4731 4.04157 12.1497 4.0311 11.9352 4.21354L10.4456 5.48014C10.4809 5.59155 10.5 5.71021 10.5 5.83333C10.5 6.47768 9.97764 7 9.33335 7C8.689 7 8.16669 6.47768 8.16669 5.83333C8.16669 5.46166 8.34046 5.13059 8.61124 4.91694L7.40386 2.01923C7.3359 1.8562 7.17665 1.75 7.00002 1.75C6.82339 1.75 6.66408 1.8562 6.59618 2.01923L5.38878 4.91694C5.65954 5.13059 5.83334 5.46166 5.83334 5.83333C5.83334 6.47768 5.31101 7 4.66667 7Z" fill="#950B0B" stroke="#950B0B" stroke-width="1.2" stroke-linecap="round" stroke-linejoin="round"/>
</svg>
