<svg width="18" height="18" viewBox="0 0 18 18" fill="none" xmlns="http://www.w3.org/2000/svg">
<path d="M9.41323 10.2061C8.27367 11.4305 3.90773 13.5081 5.27088 15.7706C5.76053 16.5834 7.17018 16.5 8.14589 16.5H9.85411C12.4152 16.5 13.6958 16.5 14.5718 15.7714C15.4477 15.0429 15.6353 13.8217 16.0107 11.3793L16.2365 9.91009C16.5012 8.18718 16.6336 7.32573 16.3079 6.56203C15.9821 5.79834 15.2595 5.27582 13.8141 4.2308L12.7343 3.45C10.9363 2.15 10.0373 1.5 9 1.5C7.96271 1.5 7.06372 2.15 5.26574 3.45L4.18585 4.2308C2.74052 5.27582 2.01785 5.79834 1.69212 6.56203C1.3664 7.32573 1.49878 8.18718 1.76354 9.91009L1.98932 11.3793C2.25632 13.1168 2.42836 14.2362 2.82076 15M9.13507 13.5944C10.9113 13.2505 12.1281 12.1574 12.7005 10.3913C13.3487 8.39109 12.47 5.91282 10.2564 5.33954C10.2564 5.33954 10.9389 6.15316 10.498 6.86689C9.64799 8.3966 7.21839 7.88806 6.24401 9.83741C5.67024 10.9256 5.84419 12.2138 6.67037 13.0172C7.18952 13.522 8.28211 13.7596 9.13507 13.5944Z" stroke="white" stroke-width="0.8" stroke-linecap="round" stroke-linejoin="round"/>
</svg>
