<svg width="16" height="16" viewBox="0 0 16 16" fill="none" xmlns="http://www.w3.org/2000/svg">
<g clip-path="url(#clip0_406_1499)">
<path d="M5 8H9M5 5.33333H7" stroke="white" stroke-width="0.8" stroke-linecap="round" stroke-linejoin="round"/>
<path d="M5.66675 13.3335C6.367 13.9133 7.20975 14.2827 8.17576 14.3461C8.93687 14.396 9.73151 14.3959 10.4911 14.3461C10.7526 14.3289 11.0377 14.2673 11.2833 14.1675C11.5564 14.0565 11.6931 14.0009 11.7625 14.0094C11.8319 14.0178 11.9327 14.0911 12.1341 14.2377C12.4893 14.4962 12.9368 14.6818 13.6004 14.6659C13.9359 14.6578 14.1037 14.6538 14.1788 14.5274C14.2539 14.401 14.1604 14.2261 13.9733 13.8762C13.7138 13.391 13.5494 12.8354 13.7985 12.3903C14.2276 11.7545 14.592 11.0016 14.6453 10.1883C14.6739 9.7514 14.6739 9.2989 14.6453 8.86195C14.6098 8.3201 14.4783 7.805 14.2675 7.3335" stroke="white" stroke-width="0.8" stroke-linecap="round" stroke-linejoin="round"/>
<path d="M8.23017 11.658C10.6005 11.5019 12.4887 9.60478 12.644 7.22311C12.6744 6.75703 12.6744 6.27437 12.644 5.80829C12.4887 3.42662 10.6005 1.5295 8.23017 1.3734C7.42149 1.32014 6.57718 1.32025 5.77015 1.3734C3.39978 1.5295 1.51166 3.42662 1.3563 5.80829C1.3259 6.27437 1.3259 6.75703 1.3563 7.22311C1.41288 8.09054 1.80011 8.8937 2.25598 9.57187C2.52067 10.0467 2.34598 10.6392 2.07028 11.1568C1.8715 11.53 1.7721 11.7166 1.85191 11.8514C1.93171 11.9862 2.10998 11.9905 2.4665 11.9991C3.17157 12.0161 3.64702 11.8181 4.02441 11.5424C4.23846 11.386 4.34548 11.3079 4.41924 11.2989C4.493 11.2899 4.63816 11.3491 4.92843 11.4675C5.18932 11.574 5.49224 11.6397 5.77015 11.658C6.57718 11.7112 7.42149 11.7113 8.23017 11.658Z" stroke="white" stroke-width="0.8" stroke-linejoin="round"/>
</g>
<defs>
<clipPath id="clip0_406_1499">
<rect width="16" height="16" fill="white"/>
</clipPath>
</defs>
</svg>
