<svg width="18" height="18" viewBox="0 0 18 18" fill="none" xmlns="http://www.w3.org/2000/svg">
<path d="M2.625 7.5V11.25C2.625 13.3713 2.625 14.432 3.28401 15.091C3.94302 15.75 5.00368 15.75 7.125 15.75H10.875C12.9963 15.75 14.057 15.75 14.716 15.091C15.375 14.432 15.375 13.3713 15.375 11.25V7.5" stroke="white" stroke-width="0.8" stroke-linecap="round" stroke-linejoin="round"/>
<path d="M12.75 5.6261C12.75 6.66164 11.9105 7.4997 10.875 7.4997C9.83947 7.4997 9 6.66024 9 5.6247C9 6.66024 8.16053 7.4997 7.125 7.4997C6.08947 7.4997 5.25 6.66024 5.25 5.6247C5.25 6.66024 4.3699 7.4997 3.28425 7.4997C2.69987 7.4997 2.17505 7.25648 1.81499 6.87038C1.19595 6.20657 1.59419 5.23025 2.11085 4.49104L2.4015 4.09361C3.06288 3.18925 3.39357 2.73708 3.87369 2.49343C4.3538 2.24978 4.914 2.24986 6.03439 2.25001L11.9663 2.2508C13.0864 2.25095 13.6464 2.25102 14.1263 2.49466C14.6063 2.7383 14.9369 3.19033 15.598 4.0944L15.8891 4.49244C16.4058 5.23164 16.804 6.20797 16.185 6.87178C15.8249 7.25788 15.3001 7.5011 14.7157 7.5011C13.6301 7.5011 12.75 6.66164 12.75 5.6261Z" stroke="white" stroke-width="0.8" stroke-linecap="round" stroke-linejoin="round"/>
<path d="M11.2478 12.75C10.735 13.2054 9.91855 13.5 8.9989 13.5C8.07925 13.5 7.26282 13.2054 6.75 12.75" stroke="white" stroke-width="0.8" stroke-linecap="round" stroke-linejoin="round"/>
</svg>
